<svg id="Layer_1" data-name="Layer 1" xmlns="http://www.w3.org/2000/svg" xmlns:xlink="http://www.w3.org/1999/xlink" viewBox="0 0 299.59 305.73"><defs><style>.cls-1,.cls-17{fill:none;}.cls-1{clip-rule:evenodd;}.cls-2{clip-path:url(#clip-path);}.cls-3{fill:url(#linear-gradient);}.cls-4{clip-path:url(#clip-path-2);}.cls-5{fill:url(#linear-gradient-2);}.cls-6{clip-path:url(#clip-path-3);}.cls-7{fill:url(#linear-gradient-3);}.cls-8{fill:#fee69a;}.cls-8,.cls-9{fill-rule:evenodd;}.cls-9{fill:#dfae3b;}.cls-10{clip-path:url(#clip-path-4);}.cls-11{fill:url(#linear-gradient-4);}.cls-12{clip-path:url(#clip-path-5);}.cls-13{fill:url(#linear-gradient-5);}.cls-14{clip-path:url(#clip-path-6);}.cls-15{fill:url(#linear-gradient-6);}.cls-16{fill:#f2ad18;}.cls-17{stroke:#f2ad18;stroke-miterlimit:2.61;stroke-width:4px;}</style><clipPath id="clip-path" transform="translate(-30.21 -28.13)"><polygon class="cls-1" points="68.71 144.42 180.28 79.31 180.47 28.13 68.7 93.24 68.71 144.42"/></clipPath><linearGradient id="linear-gradient" x1="36.94" y1="69.4" x2="147.55" y2="47.72" gradientUnits="userSpaceOnUse"><stop offset="0" stop-color="#a07532"/><stop offset="0.54" stop-color="#fbd75a"/><stop offset="1" stop-color="#f2ad18"/></linearGradient><clipPath id="clip-path-2" transform="translate(-30.21 -28.13)"><polygon class="cls-1" points="180.28 79.31 248.4 119.2 249.15 186.38 291.49 212.53 291.48 93.99 180.47 28.13 180.28 79.31"/></clipPath><linearGradient id="linear-gradient-2" x1="134.73" y1="79.25" x2="267.8" y2="103.53" xlink:href="#linear-gradient"/><clipPath id="clip-path-3" transform="translate(-30.21 -28.13)"><polygon class="cls-1" points="180.46 273.47 180.42 226.08 245.32 188.63 282.82 212.83 180.46 273.47"/></clipPath><linearGradient id="linear-gradient-3" x1="141.85" y1="181.16" x2="253.58" y2="221.97" xlink:href="#linear-gradient"/><clipPath id="clip-path-4" transform="translate(-30.21 -28.13)"><polygon class="cls-1" points="180.42 226.08 116.22 188.4 77.73 211.97 180.43 273.46 180.42 226.08"/></clipPath><linearGradient id="linear-gradient-4" x1="39.15" y1="180.97" x2="151.18" y2="221.9" xlink:href="#linear-gradient"/><clipPath id="clip-path-5" transform="translate(-30.21 -28.13)"><polygon class="cls-1" points="68.51 211.4 180.47 145.12 179.91 95.12 68.52 160.22 68.51 211.4"/></clipPath><linearGradient id="linear-gradient-5" x1="36.76" y1="136.42" x2="147.54" y2="114.67" xlink:href="#linear-gradient"/><clipPath id="clip-path-6" transform="translate(-30.21 -28.13)"><polygon class="cls-1" points="180.47 145.12 232.21 177.91 231.46 125.98 179.91 95.12 180.47 145.12"/></clipPath><linearGradient id="linear-gradient-6" x1="142.59" y1="102.02" x2="204.99" y2="113.95" xlink:href="#linear-gradient"/></defs><g class="cls-2"><rect class="cls-3" x="38.49" width="111.77" height="116.28"/></g><g class="cls-4"><rect class="cls-5" x="150.08" width="111.2" height="184.4"/></g><g class="cls-6"><rect class="cls-7" x="150.21" y="160.5" width="102.4" height="84.84"/></g><polygon class="cls-8" points="215.11 160.5 256.57 187.22 261.28 184.4 218.94 158.24 215.11 160.5"/><polygon class="cls-8" points="252.62 184.7 150.25 245.34 150.23 251.06 256.57 187.22 252.62 184.7"/><polygon class="cls-8" points="150.23 245.32 47.53 183.83 86.01 160.27 150.26 122 196.22 151.63 202.01 149.78 150.26 116.99 38.31 183.27 150.23 251.06 150.23 245.32"/><polygon class="cls-9" points="43.25 119.74 150.36 56.14 215.04 94.01 215.11 160.46 218.94 158.24 218.19 91.07 150.08 51.18 38.5 116.28 43.25 119.74"/><g class="cls-10"><rect class="cls-11" x="47.53" y="160.27" width="102.7" height="85.05"/></g><g class="cls-12"><rect class="cls-13" x="38.31" y="66.99" width="111.96" height="116.28"/></g><g class="cls-14"><rect class="cls-15" x="149.7" y="66.99" width="52.31" height="82.79"/></g><path class="cls-16" d="M312.65,289.65h17.14v5.86H318.6v5.64h11.19v5.78H318.6v8.26h11.19v5.86H312.65Zm-19.51,17.67v8.05h1.52c2.51,0,4.21-.32,5.09-.94a3.17,3.17,0,0,0,1.31-2.74,3.8,3.8,0,0,0-1.54-3.2c-1-.78-2.73-1.17-5.12-1.17Zm0-12V302h1.34a5,5,0,0,0,3.31-.92,3.09,3.09,0,0,0,1.08-2.51,2.93,2.93,0,0,0-1-2.35,4.78,4.78,0,0,0-3.12-.86Zm-5.94,25.71v-31.4h4.95a25.82,25.82,0,0,1,6.31.55A8.56,8.56,0,0,1,303,293a7.35,7.35,0,0,1,1.68,4.79,7.05,7.05,0,0,1-.76,3.26,8.36,8.36,0,0,1-2.47,2.75,9.69,9.69,0,0,1,4.18,3.36,8.48,8.48,0,0,1,1.32,4.76,8.87,8.87,0,0,1-1.37,4.82A8.75,8.75,0,0,1,302,320a13.49,13.49,0,0,1-6,1.08ZM259,289.65h6V310a10.71,10.71,0,0,0,.46,3.71,3.76,3.76,0,0,0,1.52,1.74,4.83,4.83,0,0,0,2.55.65,5,5,0,0,0,2.73-.73,3.8,3.8,0,0,0,1.58-1.85,13.71,13.71,0,0,0,.44-4.28V289.65h6v18.72a27.44,27.44,0,0,1-.53,6.57,10.14,10.14,0,0,1-5.52,6.08,11.82,11.82,0,0,1-4.56.82,11.08,11.08,0,0,1-5.94-1.57,9.12,9.12,0,0,1-3.62-3.93c-.72-1.57-1.09-4.22-1.09-8Zm-28,0h6V310a10.77,10.77,0,0,0,.45,3.71,3.76,3.76,0,0,0,1.52,1.74,4.83,4.83,0,0,0,2.55.65,5,5,0,0,0,2.73-.73,3.8,3.8,0,0,0,1.58-1.85,13.71,13.71,0,0,0,.44-4.28V289.65h6v18.72a27.44,27.44,0,0,1-.53,6.57,9.41,9.41,0,0,1-2,3.55,9.56,9.56,0,0,1-3.47,2.53,11.91,11.91,0,0,1-4.57.82,11.11,11.11,0,0,1-5.94-1.57,9.12,9.12,0,0,1-3.62-3.93c-.72-1.57-1.09-4.22-1.09-8Zm-21.79,5.07a9.81,9.81,0,0,0-7.3,3,10.55,10.55,0,0,0-3,7.7,10,10,0,0,0,3.73,8.24,10.18,10.18,0,0,0,6.64,2.37,9.68,9.68,0,0,0,7.21-3.08,11.1,11.1,0,0,0,0-15.16A9.78,9.78,0,0,0,209.23,294.72Zm.09-5.86a15.56,15.56,0,0,1,11.45,4.83,16,16,0,0,1,4.79,11.76,15.84,15.84,0,0,1-4.73,11.63,16.37,16.37,0,0,1-23.21-.13,16.49,16.49,0,0,1,11.7-28.09Zm-51.68,6.56v19.82h2.77a13.77,13.77,0,0,0,5.94-.95,7,7,0,0,0,3-3.16,11.61,11.61,0,0,0,1.18-5.47c0-3.33-.94-5.92-2.8-7.76-1.67-1.65-4.37-2.48-8.08-2.48Zm-5.94-5.77h7.07q6.85,0,10.18,1.7a13.3,13.3,0,0,1,5.48,5.52,17.77,17.77,0,0,1,2.15,8.92,18,18,0,0,1-1.2,6.67,14,14,0,0,1-3.33,5.05,12,12,0,0,1-4.6,2.78,32.83,32.83,0,0,1-8.57.76H151.7Zm-32.35,0H125l13.53,20.67V289.65h5.94v31.4h-5.71l-13.49-20.6v20.6h-5.94ZM99.57,298l-4.26,10.81h8.49Zm-3-8.35h6l12.09,31.4h-6.22L106,314.58H93.12l-2.51,6.47H84.39ZM67.93,301.94h1.89a7.5,7.5,0,0,0,4-.75,2.82,2.82,0,0,0,1.08-2.5,3,3,0,0,0-2-2.89,11.14,11.14,0,0,0-3.32-.33H67.93Zm-6-12.29h6.35c3.47,0,6,.31,7.42.93a7.6,7.6,0,0,1,3.56,3.09,9.46,9.46,0,0,1,1.34,5.1,8.65,8.65,0,0,1-1.48,5.17,8.84,8.84,0,0,1-4.46,3.15l7.41,14H75.59l-7.06-13.29h-.6v13.29H62Zm-24.2,13.91v10.25h1.93c3.2,0,5.37-.4,6.48-1.2a4,4,0,0,0,1.67-3.48,4.84,4.84,0,0,0-2-4.07q-2-1.5-6.51-1.5Zm0-15.26v8.47h1.7a6.36,6.36,0,0,0,4.22-1.18,4,4,0,0,0,1.38-3.19,3.72,3.72,0,0,0-1.31-3,6,6,0,0,0-4-1.11Zm-7.57,32.75v-40h6.31a32.4,32.4,0,0,1,8,.71,10.85,10.85,0,0,1,5.73,3.53,9.32,9.32,0,0,1,2.14,6.1,8.91,8.91,0,0,1-1,4.15,10.45,10.45,0,0,1-3.13,3.5,12.51,12.51,0,0,1,5.32,4.28,10.82,10.82,0,0,1,1.68,6.07,11.32,11.32,0,0,1-1.75,6.14,11.12,11.12,0,0,1-4.51,4.14,17.26,17.26,0,0,1-7.61,1.37Z" transform="translate(-30.21 -28.13)"/><path class="cls-17" d="M200.74,312.27c19.67-11.73,17.34,31.88,49.1,16.12" transform="translate(-30.21 -28.13)"/></svg>